<svg preserveAspectRatio="none" overflow="visible" style="display: block;" width="535" height="535" viewBox="0 0 535 535" fill="none" xmlns="http://www.w3.org/2000/svg">
<path id="Union" fill-rule="evenodd" clip-rule="evenodd" d="M401.25 267.5H353.1V0H347.75V267.5H326.35V0H321V267.5H299.6V0H294.25V267.5H272.85V0H267.5V267.5H0V272.85H267.5V294.25H0V299.6H267.5V321H0V326.35H267.5V347.75H0V353.1H267.5V401.25C267.5 475.118 327.382 535 401.25 535C475.118 535 535 475.118 535 401.25C535 327.382 475.118 267.5 401.25 267.5ZM294.25 294.25H272.85V272.85H294.25V294.25ZM299.6 294.25H321V272.85H299.6V294.25ZM326.35 294.25H347.75V272.85H326.35V294.25ZM353.1 294.25V272.85H401.25C472.163 272.85 529.65 330.337 529.65 401.25C529.65 472.163 472.163 529.65 401.25 529.65C330.337 529.65 272.85 472.163 272.85 401.25V353.1H294.25V401.25C294.25 460.344 342.156 508.25 401.25 508.25C460.344 508.25 508.25 460.344 508.25 401.25C508.25 342.156 460.344 294.25 401.25 294.25H353.1ZM294.25 347.75H272.85V326.35H294.25V347.75ZM299.6 353.1V401.25C299.6 457.39 345.11 502.9 401.25 502.9C457.39 502.9 502.9 457.39 502.9 401.25C502.9 345.11 457.39 299.6 401.25 299.6H353.1V321H401.25C445.571 321 481.5 356.929 481.5 401.25C481.5 445.571 445.571 481.5 401.25 481.5C356.929 481.5 321 445.571 321 401.25V353.1H299.6ZM326.35 321H347.75V299.6H326.35V321ZM321 299.6V321H299.6V299.6H321ZM321 326.35V347.75H299.6V326.35H321ZM326.35 401.25V353.1H347.75V401.25C347.75 430.797 371.703 454.75 401.25 454.75C430.797 454.75 454.75 430.797 454.75 401.25C454.75 371.703 430.797 347.75 401.25 347.75H353.1V326.35H401.25C442.616 326.35 476.15 359.884 476.15 401.25C476.15 442.616 442.616 476.15 401.25 476.15C359.884 476.15 326.35 442.616 326.35 401.25ZM353.1 401.25C353.1 427.842 374.657 449.4 401.25 449.4C427.842 449.4 449.4 427.842 449.4 401.25C449.4 374.657 427.842 353.1 401.25 353.1H353.1V401.25ZM347.75 347.75V326.35H326.35V347.75H347.75ZM294.25 321H272.85V299.6H294.25V321Z" fill="url(#paint0_linear_0_82)"/>
<defs>
<linearGradient id="paint0_linear_0_82" x1="-1.62211e-05" y1="-178.333" x2="384.531" y2="830.365" gradientUnits="userSpaceOnUse">
<stop stop-color="#B9DFDF"/>
<stop offset="1" stop-color="#20C5B5"/>
</linearGradient>
</defs>
</svg>
